<?xml version="1.0" standalone="no"?>
<!DOCTYPE svg PUBLIC "-//W3C//DTD SVG 20010904//EN"
 "http://www.w3.org/TR/2001/REC-SVG-20010904/DTD/svg10.dtd">
<svg version="1.0" xmlns="http://www.w3.org/2000/svg"
 width="500.000000pt" height="500.000000pt" viewBox="0 0 500.000000 500.000000"
 preserveAspectRatio="xMidYMid meet">
<metadata>
Created by potrace 1.11, written by Peter Selinger 2001-2013
</metadata>
<g transform="translate(0.000000,500.000000) scale(0.100000,-0.100000)"
fill="#000000" stroke="none">
<path d="M2245 4181 c-447 -79 -825 -338 -1060 -724 -97 -160 -172 -371 -201
-570 -21 -146 -14 -390 15 -525 88 -400 318 -741 649 -963 l75 -50 33 -127
c93 -362 227 -638 388 -798 115 -114 213 -146 245 -79 36 73 29 136 -65 600
-19 94 -34 178 -34 186 0 13 27 15 178 14 97 0 208 4 245 8 68 9 68 9 63 -15
-3 -12 -26 -120 -51 -238 -25 -118 -53 -244 -62 -280 -8 -36 -17 -105 -20
-155 -7 -152 36 -196 145 -144 57 27 193 162 247 243 58 89 129 229 175 346
43 107 122 371 135 446 5 36 14 47 68 87 297 218 506 544 588 919 29 135 36
379 15 525 -99 672 -612 1190 -1286 1298 -128 20 -357 18 -485 -4z m491 -380
c384 -99 675 -450 809 -975 45 -176 59 -293 52 -423 -8 -165 -62 -324 -156
-463 l-31 -45 0 91 c0 68 4 95 14 104 29 23 78 111 104 182 21 61 25 92 26
188 1 113 0 116 -37 195 -84 176 -312 338 -471 334 l-41 -1 39 -9 c130 -31
291 -170 361 -313 34 -67 38 -85 38 -149 0 -203 -125 -387 -263 -387 -65 0
-111 31 -263 179 -164 158 -226 203 -316 231 -80 25 -122 25 -202 0 -90 -28
-152 -73 -316 -231 -78 -76 -160 -147 -182 -159 -141 -71 -289 53 -337 282
-10 45 -13 91 -9 121 23 166 230 386 401 426 l39 9 -41 1 c-105 3 -238 -63
-351 -174 -65 -64 -90 -97 -120 -160 -37 -79 -38 -82 -37 -195 1 -97 5 -126
27 -189 34 -93 76 -159 138 -215 l49 -44 0 -98 c0 -96 0 -97 -20 -79 -29 26
-114 152 -149 222 -77 154 -107 355 -81 546 27 204 111 469 201 637 159 294
382 490 633 556 104 28 157 33 286 29 84 -2 151 -10 206 -24z m-150 -1451 c58
-29 252 -196 266 -229 4 -9 7 -84 7 -167 l1 -152 -117 -22 c-200 -37 -295 -37
-472 1 -46 10 -51 13 -57 45 -3 19 -2 112 4 207 l10 172 63 58 c70 62 167 117
209 117 15 0 53 -13 86 -30z m-566 -402 c0 -121 19 -364 41 -528 21 -161 58
-359 129 -684 54 -248 49 -286 -22 -191 -86 113 -215 413 -287 665 -62 217
-111 526 -111 704 l0 59 38 -7 c42 -6 144 16 177 39 11 8 23 14 28 14 4 1 7
-32 7 -71z m985 62 c12 -20 139 -51 183 -45 l42 6 0 -58 c0 -177 -49 -486
-111 -703 -72 -253 -201 -552 -287 -666 -72 -94 -76 -56 -22 192 71 325 108
523 129 684 22 164 41 407 41 528 0 65 9 88 25 62z m-159 -352 c-10 -163 -3
-153 -102 -172 -118 -24 -272 -30 -381 -17 -51 6 -99 14 -107 17 -20 8 -24 22
-32 136 l-6 97 83 -30 c163 -60 295 -50 459 35 47 24 87 44 89 45 2 0 1 -49
-3 -111z"/>
<path d="M1737 3231 c-42 -50 -46 -122 -9 -163 54 -62 146 59 112 147 -21 54
-65 61 -103 16z"/>
<path d="M3183 3252 c-40 -25 -38 -123 4 -172 55 -66 125 -9 107 85 -12 67
-70 113 -111 87z"/>
<path d="M2438 3156 c-61 -16 -98 -46 -200 -157 -88 -96 -144 -141 -206 -164
l-37 -14 46 0 c85 -2 157 35 281 145 35 30 81 65 103 76 78 41 142 22 253 -76
124 -110 196 -147 281 -145 l46 0 -36 14 c-64 23 -112 62 -215 172 -136 145
-208 179 -316 149z"/>
</g>
</svg>
